<svg id="Layer_1" data-name="Layer 1" xmlns="http://www.w3.org/2000/svg" viewBox="0 0 317.89 250.4">
  <title>laulea-flower</title>
  <path
      d="M230.24,491.88c-79.74-30-83.59-77.89-83.59-77.89,62.7,3.67,89.65,70.24,89.65,70.24-12-7.17-35.66-25.23-35.66-25.23C204,468,230.24,491.88,230.24,491.88Z"
      transform="translate(-146.64 -271.01)" style="fill:#31221a"/>
  <path
      d="M266.87,496.56c-97.27-89.48-75-160.53-75-160.53,88.05,41.66,88.18,153,88.18,153-13.13-17.27-36.65-57-36.65-57C243,447.05,266.87,496.56,266.87,496.56Z"
      transform="translate(-146.64 -271.01)" style="fill:#31221a"/>
  <path
      d="M305.35,423.84c-6.49,20-4.62,97.57-4.62,97.57-53.88-164.3-3.9-250.4-3.9-250.4,65,95.57,19.25,246.17,19.25,246.17C310.94,488,305.35,423.84,305.35,423.84Z"
      transform="translate(-146.64 -271.01)" style="fill:#31221a"/>
  <path
      d="M344.14,510.7c5.34-20.53,22.33-64.4,22.33-64.4-13,12-38.06,64-38.06,64,6.73-120.75,83-167.47,83-167.47C438.82,420.15,344.14,510.7,344.14,510.7Z"
      transform="translate(-146.64 -271.01)" style="fill:#31221a"/>
  <path
      d="M376.12,497.93c9.66-10.13,32.53-29.16,32.53-29.16-9.56,1.29-38.63,21.55-38.63,21.55,47-71.07,94.52-64.19,94.52-64.19C447,486.46,376.12,497.93,376.12,497.93Z"
      transform="translate(-146.64 -271.01)" style="fill:#31221a"/>
</svg>
