<svg id="Layer_1" data-name="Layer 1" xmlns="http://www.w3.org/2000/svg" viewBox="0 0 181.37 181.38">
  <title>luxus-diamond</title>
  <path
      d="M305.66,307.08l-5.38,5.38L215,397.77l90.69,90.69,90.69-90.69ZM334.6,438l-28.94,28.95L276.4,437.67c3.77-16.3,15.32-28.47,29-28.5h0l-8.87-11.41-26.24,33.83-33.82-33.82,33.8-33.8,26.26,33.79,8.8-11.36c-13.57-.31-25-12.55-28.66-28.84l29-29,29.28,29.28c-3.76,16.33-15.32,28.53-29,28.56l-0.47,0,9,11.44L341,363.94l33.83,33.83L341,431.64l-26.53-33.79-8.88,11.34C319.29,409.25,330.87,421.56,334.6,438Zm-29.12-28.73,0.07-.08h-0.13Zm-0.08-22.92,0,0.06h0.09Z"
      transform="translate(-214.97 -307.08)" style="fill:#c5c19d"/>
</svg>
