<?xml version="1.0" encoding="utf-8"?>
<!-- Generator: Adobe Illustrator 19.2.0, SVG Export Plug-In . SVG Version: 6.00 Build 0)  -->
<svg version="1.1" id="Layer_1" xmlns="http://www.w3.org/2000/svg"  x="0px" y="0px"
	 viewBox="0 0 58.09 47.89" style="enable-background:new 0 0 58.09 47.89;" xml:space="preserve">
<style type="text/css">
	.st0{fill-rule:evenodd;clip-rule:evenodd;fill:none;stroke:#231F20;stroke-width:0.2267;stroke-miterlimit:10;}
	.st1{fill-rule:evenodd;clip-rule:evenodd;fill:#231F20;}
	.st2{fill:#231F20;}
</style>
<g>
	<g>
		<path class="st0" d="M42.25,29.35c-1.1,2.54,0.14,4.93,2.06,7.25"/>
		<g>
			<path class="st1" d="M51.01,39.16c2,2.91,2.12,6.51,0.27,8.04c-1.85,1.53-4.98,0.41-6.97-2.5c-2-2.91-2.12-6.51-0.27-8.04
				C45.89,35.13,49.01,36.25,51.01,39.16z"/>
		</g>
	</g>
	<path class="st1" d="M23.66,20.64C23.71,12.51,26.2,5.8,30.07,0c0.47,7.15-1.5,14.88-5.56,21.57c0.66-5.96,2.59-12.5,4.36-18
		c-2.11,4.99-3.82,10.37-4.8,16.45C23.1,26.1,23.66,20.64,23.66,20.64z"/>
	<path class="st1" d="M26.83,21.48C31.6,14.94,37.5,11.25,44,9.27c-5.49,6.29-9.71,9.78-17.01,13.55c3.99-4.36,9.35-8.3,13.97-11.5
		c-4.6,2.56-9.11,5.72-13.43,9.94C23.21,25.49,26.83,21.48,26.83,21.48z"/>
	<path class="st1" d="M43.54,27.14c5.39,1.1,10.17,0.06,14.56-2.21c-4.67-1.38-10.06-0.9-15.05,1.4c3.97-0.67,8.56-1.48,12.52-0.94
		c-2.89,0.09-6.45,0.4-11.56,1.51C39.93,27.78,43.54,27.14,43.54,27.14z"/>
	<path class="st1" d="M33.39,23.7c7.39,1.49,13.96,0.05,19.96-3.08c-7.21-1.03-13.75-0.19-20.64,1.97
		c5.54,0.42,11.84-0.45,17.17-1.34c-4.93,1.36-10.14,2.2-15.85,2.11C28.33,23.28,33.39,23.7,33.39,23.7z"/>
	<g>
		<path class="st0" d="M36.35,27.58c0.57,2.77,0.27,5.27-0.75,7.53"/>
		<g>
			<path class="st1" d="M41.22,39.37c0.55,4.03-1.08,7.63-3.64,8.05c-2.56,0.42-5.08-2.5-5.63-6.53c-0.55-4.02,1.08-7.63,3.64-8.05
				C38.15,32.43,40.67,35.35,41.22,39.37z"/>
		</g>
	</g>
	<g>
		<path class="st0" d="M29.53,31.98c1.23-2.09,3.66-3.12,4.77-5.59"/>
		<g>
			<g>
				<path class="st1" d="M22.82,30.28c3.51-1.76,7.26-1.01,8.39,1.68c1.12,2.69-0.82,6.3-4.33,8.06c-3.51,1.76-7.26,1.01-8.39-1.68
					C17.37,35.65,19.31,32.04,22.82,30.28"/>
			</g>
		</g>
	</g>
	<path class="st1" d="M18.84,23.65C11.89,21.3,5.69,23.28,0,27.75c7.6,0.76,13.57-0.37,19.47-2.45c-5.21-0.73-11.16,0.4-16.19,1.6
		c4.66-1.89,9.58-3.02,14.95-2.77C23.6,24.38,18.84,23.65,18.84,23.65z"/>
	<path class="st1" d="M21.98,22.48c-2.32-4.8-5.68-7.94-9.6-10.07c1.73,4.4,5.07,8.32,9.36,10.91c-2.66-2.71-5.76-5.81-7.64-9.19
		c1.68,2.19,3.88,4.79,7.47,8.13C24.43,24.92,21.98,22.48,21.98,22.48z"/>
	<path class="st1" d="M22.41,26.56c-1.95,4.05-4.78,6.69-8.09,8.48c1.46-3.71,4.27-7.01,7.88-9.19c-2.24,2.28-4.86,4.9-6.44,7.75
		c1.42-1.84,3.27-4.03,6.29-6.85C24.47,24.5,22.41,26.56,22.41,26.56z"/>
	<g>
		<path class="st2" d="M17.6,23.82c0,0,0.61,0.01,1.67,0.02c0.53,0,1.18,0.02,1.92,0.07c0.74,0.04,1.58,0.07,2.49,0.17
			c1.82,0.15,3.94,0.43,6.19,0.88c1.12,0.24,2.28,0.48,3.44,0.8c0.58,0.16,1.17,0.32,1.75,0.48l1.75,0.55
			c1.16,0.39,2.32,0.79,3.44,1.25c1.13,0.43,2.21,0.93,3.24,1.42c1.02,0.53,2.01,1.04,2.9,1.59c0.89,0.56,1.74,1.08,2.49,1.61
			c0.77,0.5,1.43,1.02,2.02,1.48c0.59,0.45,1.1,0.85,1.5,1.21c0.81,0.7,1.26,1.11,1.26,1.11l-0.07,0.09c0,0-0.53-0.31-1.42-0.88
			c-0.45-0.28-1-0.61-1.63-1c-0.62-0.4-1.35-0.8-2.13-1.25c-0.77-0.47-1.64-0.93-2.55-1.42c-0.92-0.47-1.88-0.99-2.89-1.48
			c-1.01-0.51-2.05-1.02-3.14-1.5c-1.07-0.5-2.2-0.94-3.32-1.37l-1.7-0.61c-0.57-0.18-1.14-0.36-1.71-0.53
			c-1.13-0.35-2.27-0.63-3.37-0.91c-2.21-0.51-4.29-0.89-6.09-1.12c-0.9-0.14-1.73-0.21-2.46-0.28c-0.73-0.08-1.38-0.13-1.91-0.15
			c-1.06-0.06-1.67-0.1-1.67-0.1L17.6,23.82z"/>
	</g>
</g>
</svg>
