<svg id="Layer_1" data-name="Layer 1" xmlns="http://www.w3.org/2000/svg" viewBox="0 0 380.14 670.71">
  <title>suitcase-logo</title>
  <path
      d="M367.21,61.53H244.35c-20.66,0-37.45,15.5-37.45,34.55v22H233v-22c0-5.77,5.08-10.47,11.34-10.47H367.21c6.26,0,11.34,4.7,11.34,10.47v22h26.11v-22C404.66,77,387.85,61.53,367.21,61.53Z"
      transform="translate(-115.71 -61.53)" style="fill:#e27a3e"/>
  <path
      d="M383.48,138.56V295.32c0,8.28-7.3,15-16.27,15H244.35c-9,0-16.27-6.73-16.27-15V138.56H211.82V295.32c0,16.55,14.59,30,32.54,30H367.21c17.94,0,32.52-13.46,32.52-30V138.56H383.48Z"
      transform="translate(-115.71 -61.53)" style="fill:#e27a3e"/>
  <path
      d="M207.67,723.52c0,4.81-4.23,8.72-9.44,8.72H174.08c-5.21,0-9.44-3.9-9.44-8.72V669.77c0-4.81,4.23-8.72,9.44-8.72h24.15c5.21,0,9.44,3.9,9.44,8.72v53.76Z"
      transform="translate(-115.71 -61.53)" style="fill:#e27a3e"/>
  <path
      d="M446.92,723.52c0,4.81-4.23,8.72-9.44,8.72H413.33c-5.21,0-9.44-3.9-9.44-8.72V669.77c0-4.81,4.23-8.72,9.44-8.72h24.15c5.21,0,9.44,3.9,9.44,8.72v53.76Z"
      transform="translate(-115.71 -61.53)" style="fill:#e27a3e"/>
  <path
      d="M466.36,283.68H145.21c-16.28,0-29.5,12.19-29.5,27.22V655.66c0,15,13.22,27.21,29.5,27.21H466.36c16.28,0,29.49-12.18,29.49-27.21V310.9C495.84,295.87,482.64,283.68,466.36,283.68ZM305.78,446.22c-25.34,0-45.88-8.12-45.88-18.14s20.54-18.15,45.88-18.15,45.88,8.13,45.88,18.15S331.12,446.22,305.78,446.22ZM441.66,632H422V382c0-6.56-5.79-11.9-12.89-11.9H202.46c-7.11,0-12.89,5.34-12.89,11.9V632H169.91V382c0-16.56,14.61-30,32.55-30H409.1c17.94,0,32.55,13.48,32.55,30V632Z"
      transform="translate(-115.71 -61.53)" style="fill:#e27a3e"/>
</svg>
